# xmcd CD database file
#
# Track frame offsets:
#	150
#	18762
#	30197
#	41190
#	57635
#	72360
#	85505
#	97685
#	121565
#	141075
#	155022
#	169912
#	182522
#	195585
#	208707
#	223697
#	239002
#	256122
#	278212
#	291260
#
# Disc length: 4183 seconds
#
# Revision: 5
# Processed by: cddbd v1.5.2PL0 Copyright (c) Steve Scherf et al.
# Submitted via: CDex 1.51
#
DISCID=18105514
DTITLE=Various Artist - Greatest Blues of All Time Disc 2
DYEAR=1998
DGENRE=Blues
TTITLE0=B. B. King - Guess Who
TTITLE1=Big Joe Turner - Corinne, Corrina
TTITLE2=Billy Stewart - Billy's Blues, Part Two
TTITLE3=Bobby Bland - Do What You Set Out To Do
TTITLE4=Eddie Boyd - Third Degree
TTITLE5=Clarence "Gatemouth" Brown - Depression Blues
TTITLE6=Howlin' Wolf - How Many More Years
TTITLE7=John Lee Hooker - I Put My Trust In You
TTITLE8=Koko Taylor - Big Boss Man
TTITLE9=Memphis Minnie - Moanin' The Blues
TTITLE10=Muddy Waters - She's Nineteen Years Old
TTITLE11=T-Bone Walker - Every Night I Have To Cry
TTITLE12=Big Joe Turner - Piney Brown Blues
TTITLE13=B. B. King - Rainin' All The Time
TTITLE14=Bobby Bland - Touch Of The Blues
TTITLE15=Little Milton - Blind Man
TTITLE16=Brownie McGhee and Sonny Terry - Hole In The Wall
TTITLE17=B. B. King with Carol King - Chains And Things
TTITLE18=Muddy Waters - Funky Butt
TTITLE19=T-Bone Walker - Goin' To Funky Town
EXTD=YEAR: 1998
EXTT0=
EXTT1=
EXTT2=
EXTT3=
EXTT4=
EXTT5=
EXTT6=
EXTT7=
EXTT8=
EXTT9=
EXTT10=
EXTT11=
EXTT12=
EXTT13=
EXTT14=
EXTT15=
EXTT16=
EXTT17=
EXTT18=
EXTT19=
PLAYORDER=
